<svg width="128" height="128" viewBox="0 0 128 128" fill="none" xmlns="http://www.w3.org/2000/svg">
<g opacity="0.9">
<g filter="url(#filter0_d_1_60)">
<circle cx="64" cy="48" r="40" fill="white"/>
</g>
</g>
<g opacity="0.9">
<path d="M56 52.7999C56 53.1999 56.2 53.5999 56.6 53.7999L61.6 56.7999C62.2 57.1999 62.8 56.7999 62.8 56.1999V50.5999C62.8 50.3999 62.6 49.9999 62.4 49.9999L57.2 46.5999C56.8 46.3999 56 46.7999 56 47.3999V52.7999Z" fill="#091E42"/>
<path d="M63.5998 50.4001V56.0001C63.5998 56.6001 64.1998 57.0001 64.7998 56.6001L69.7998 53.6001C70.1998 53.4001 70.3998 53.0001 70.3998 52.6001V47.4001C70.3998 46.8001 69.7998 46.4001 69.1998 46.8001L63.9998 49.6001C63.7998 49.8001 63.5998 50.0001 63.5998 50.4001Z" fill="#091E42"/>
<path d="M69.2 45.7999L63.6 48.9999C63.4 49.1999 63 49.1999 62.8 48.9999L57.2 45.7999C56.6 45.3999 56.6 44.7999 57.2 44.3999L62.8 41.1999C63 40.9999 63.4 40.9999 63.6 41.1999L69.2 44.3999C69.8 44.5999 69.8 45.3999 69.2 45.7999Z" fill="#36B37E"/>
<path d="M44 64C44 64.4 44.2 64.8 44.6 65L49.6 68C50.2 68.4 50.8 68 50.8 67.4V61.8C50.8 61.6 50.6 61.2 50.4 61.2L45.2 58.2C44.6 57.8 44 58.2 44 58.8V64V64Z" fill="#091E42"/>
<path d="M51.5998 61.3999V66.9999C51.5998 67.5999 52.1998 67.9999 52.7998 67.5999L57.7998 64.5999C58.1998 64.3999 58.3998 63.9999 58.3998 63.5999V57.9999C58.3998 57.3999 57.7998 56.9999 57.1998 57.3999L51.9998 60.7999C51.7998 60.9999 51.5998 61.1999 51.5998 61.3999Z" fill="#091E42"/>
<path d="M57.2 56.7999L51.6 59.9999C51.4 60.1999 51 60.1999 50.8 59.9999L45.2 56.7999C44.6 56.3999 44.6 55.7999 45.2 55.3999L50.8 52.1999C51 51.9999 51.4 51.9999 51.6 52.1999L57.2 55.3999C57.6 55.7999 57.6 56.5999 57.2 56.7999Z" fill="#36B37E"/>
<path d="M68.2001 64C68.2001 64.4 68.4001 64.8 68.8001 65L73.8001 68C74.4001 68.4 75.0001 68 75.0001 67.4V61.8C75.0001 61.6 74.8001 61.2 74.6001 61.2L69.4001 58.2C68.8001 57.8 68.2001 58.2 68.2001 58.8V64V64Z" fill="#091E42"/>
<path d="M75.5998 61.3999V66.9999C75.5998 67.5999 76.1998 67.9999 76.7998 67.5999L81.7998 64.5999C82.1998 64.3999 82.3998 63.9999 82.3998 63.5999V57.9999C82.3998 57.3999 81.7998 56.9999 81.1998 57.3999L75.9998 60.7999C75.7998 60.9999 75.5998 61.1999 75.5998 61.3999Z" fill="#091E42"/>
<path d="M81.2 56.7999L75.6 59.9999C75.4 60.1999 75 60.1999 74.8 59.9999L69.2 56.7999C68.6 56.3999 68.6 55.7999 69.2 55.3999L74.8 52.1999C75 51.9999 75.4 51.9999 75.6 52.1999L81.2 55.3999C81.8 55.7999 81.8 56.5999 81.2 56.7999Z" fill="#36B37E"/>
<path d="M44 41.8C44 42.2 44.2 42.6 44.6 42.8L49.6 45.8C50 46 50.8 45.6 50.8 45V39.2C50.8 39 50.6 38.6 50.4 38.6L45.2 35.6C44.6 35.4 44 35.6 44 36.4V41.8Z" fill="#091E42"/>
<path d="M51.5998 39.2001V44.8001C51.5998 45.4001 52.1998 45.8001 52.7998 45.4001L57.7998 42.4001C58.1998 42.2001 58.3998 41.8001 58.3998 41.4001V36.4001C58.3998 35.8001 57.7998 35.4001 57.1998 35.8001L51.9998 38.6001C51.7998 38.8001 51.5998 39.0001 51.5998 39.2001Z" fill="#091E42"/>
<path d="M57.2 34.6L51.6 37.8C51.4 38 51 38 50.8 37.8L45.2 34.6C44.6 34.2 44.6 33.6 45.2 33.2L50.8 30C51 30 51.4 30 51.6 30.2L57.2 33.4C57.6 33.6 57.6 34.4 57.2 34.6Z" fill="#36B37E"/>
<path d="M68.2001 41.8C68.2001 42.2 68.4001 42.6 68.8001 42.8L73.8001 45.8C74.4001 46.2 75.0001 45.8 75.0001 45.2V39.2C75.0001 39 74.8001 38.6 74.6001 38.6L69.4001 35.6C68.8001 35.2 68.2001 35.6 68.2001 36.2V41.8V41.8Z" fill="#091E42"/>
<path d="M75.5998 39.2001V44.8001C75.5998 45.4001 76.1998 45.8001 76.7998 45.4001L81.7998 42.4001C82.1998 42.2001 82.3998 41.8001 82.3998 41.4001V36.4001C82.3998 35.8001 81.7998 35.4001 81.1998 35.8001L75.9998 38.6001C75.7998 38.8001 75.5998 39.0001 75.5998 39.2001Z" fill="#091E42"/>
<path d="M81.2 34.5999L75.6 37.9999C75.4 37.9999 75.2 37.9999 74.8 37.9999L69.2 34.7999C68.6 34.3999 68.6 33.7999 69.2 33.3999L74.8 30.1999C75 29.9999 75.4 29.9999 75.6 30.1999L81.2 33.3999C81.8 33.5999 81.8 34.3999 81.2 34.5999Z" fill="#36B37E"/>
</g>
<defs>
<filter id="filter0_d_1_60" x="0" y="0" width="128" height="128" filterUnits="userSpaceOnUse" color-interpolation-filters="sRGB">
<feFlood flood-opacity="0" result="BackgroundImageFix"/>
<feColorMatrix in="SourceAlpha" type="matrix" values="0 0 0 0 0 0 0 0 0 0 0 0 0 0 0 0 0 0 127 0" result="hardAlpha"/>
<feOffset dy="16"/>
<feGaussianBlur stdDeviation="12"/>
<feColorMatrix type="matrix" values="0 0 0 0 0.145573 0 0 0 0 0.185183 0 0 0 0 0.5375 0 0 0 0.08 0"/>
<feBlend mode="normal" in2="BackgroundImageFix" result="effect1_dropShadow_1_60"/>
<feBlend mode="normal" in="SourceGraphic" in2="effect1_dropShadow_1_60" result="shape"/>
</filter>
</defs>
</svg>
