<svg width="128" height="128" viewBox="0 0 128 128" fill="none" xmlns="http://www.w3.org/2000/svg">
<g filter="url(#filter0_d_1_21)">
<circle cx="64" cy="48" r="40" fill="white"/>
</g>
<g clip-path="url(#clip0_1_21)">
<path d="M76.2709 46.896H85.7047C85.8521 46.896 85.9995 46.7489 85.9995 46.6017C85.3362 36.7422 78.1871 28.575 68.7533 26.5148C68.5322 26.4412 68.3111 26.7355 68.5322 26.9562C72.9543 31.886 75.7549 38.9495 76.0498 46.6753C75.9761 46.8225 76.1235 46.896 76.2709 46.896Z" fill="#091E42"/>
<path d="M64.1844 26C64.1107 26 64.037 26 63.9633 26C63.8896 26 63.8159 26 63.7422 26C58.0672 30.3411 54.5295 38.0669 54.161 46.602C54.161 46.7492 54.3084 46.8963 54.4558 46.8963H73.4709C73.6183 46.8963 73.7657 46.7492 73.7657 46.602C73.4709 38.0669 69.8595 30.3411 64.1844 26Z" fill="#36B37E"/>
<path d="M54.4558 49.1036C54.3084 49.1036 54.161 49.2507 54.161 49.3979C54.5295 58.0066 58.0672 65.6588 63.7422 69.9999C63.8159 69.9999 63.8896 69.9999 63.9633 69.9999C64.037 69.9999 64.1107 69.9999 64.1844 69.9999C69.8595 65.6588 73.3972 57.933 73.7657 49.3979C73.7657 49.2507 73.6183 49.1036 73.4709 49.1036H54.4558Z" fill="#091E42"/>
<path d="M75.9761 49.3243C75.6813 57.0501 72.9543 64.1136 68.5322 69.0434C68.3848 69.2641 68.5322 69.5584 68.7533 69.4848C78.1871 67.4246 85.4099 59.2574 85.9995 49.3979C85.9995 49.2507 85.8521 49.1036 85.7047 49.1036H76.2709C76.1235 49.1036 75.9761 49.2507 75.9761 49.3243Z" fill="#36B37E"/>
<path d="M51.7286 49.1036H42.2948C42.1474 49.1036 42 49.2507 42 49.3979C42.5896 59.2574 49.8124 67.4246 59.2462 69.4848C59.4673 69.5584 59.6884 69.2641 59.4673 69.0434C54.9715 64.1136 52.2446 57.0501 51.9497 49.3243C52.0235 49.2507 51.876 49.1036 51.7286 49.1036Z" fill="#36B37E"/>
<path d="M52.0235 46.6753C52.3183 38.9495 55.0452 31.886 59.4673 26.9562C59.6147 26.7355 59.4673 26.4412 59.2462 26.5148C49.8124 28.575 42.5896 36.7422 42 46.6017C42 46.7489 42.1474 46.896 42.2948 46.896H51.7286C51.876 46.896 52.0235 46.8225 52.0235 46.6753Z" fill="#091E42"/>
</g>
<defs>
<filter id="filter0_d_1_21" x="0" y="0" width="128" height="128" filterUnits="userSpaceOnUse" color-interpolation-filters="sRGB">
<feFlood flood-opacity="0" result="BackgroundImageFix"/>
<feColorMatrix in="SourceAlpha" type="matrix" values="0 0 0 0 0 0 0 0 0 0 0 0 0 0 0 0 0 0 127 0" result="hardAlpha"/>
<feOffset dy="16"/>
<feGaussianBlur stdDeviation="12"/>
<feColorMatrix type="matrix" values="0 0 0 0 0.145573 0 0 0 0 0.185183 0 0 0 0 0.5375 0 0 0 0.08 0"/>
<feBlend mode="normal" in2="BackgroundImageFix" result="effect1_dropShadow_1_21"/>
<feBlend mode="normal" in="SourceGraphic" in2="effect1_dropShadow_1_21" result="shape"/>
</filter>
<clipPath id="clip0_1_21">
<rect width="44" height="44" fill="white" transform="translate(42 26)"/>
</clipPath>
</defs>
</svg>
